<svg width="60" height="60" viewBox="0 0 60 60" fill="none" xmlns="http://www.w3.org/2000/svg">
<rect x="1" y="1" width="58" height="58" rx="29" stroke="url(#paint0_linear_969_9)" stroke-width="2"/>
<g clip-path="url(#clip0_969_9)">
<path d="M14 20.8207V20C14 19.4696 14.2041 18.9609 14.5675 18.5858C14.9308 18.2107 15.4236 18 15.9375 18H43.0625C43.5764 18 44.0692 18.2107 44.4325 18.5858C44.7959 18.9609 45 19.4696 45 20V20.8207L29.5 30.8208L14 20.8207ZM30.0134 32.8483C29.8594 32.9475 29.6815 33.0001 29.5 33.0001C29.3185 33.0001 29.1406 32.9475 28.9866 32.8483L14 23.1792V40C14 40.5304 14.2041 41.0391 14.5675 41.4142C14.9308 41.7893 15.4236 42 15.9375 42H43.0625C43.5764 42 44.0692 41.7893 44.4325 41.4142C44.7959 41.0391 45 40.5304 45 40V23.1792L30.0134 32.8483Z" fill="url(#paint1_linear_969_9)"/>
</g>
<defs>
<linearGradient id="paint0_linear_969_9" x1="3" y1="2" x2="52" y2="60" gradientUnits="userSpaceOnUse">
<stop stop-color="#690000"/>
<stop offset="1" stop-color="#E50606"/>
</linearGradient>
<linearGradient id="paint1_linear_969_9" x1="25.16" y1="23.04" x2="32.8976" y2="53.2732" gradientUnits="userSpaceOnUse">
<stop offset="0.107559" stop-color="#690000"/>
<stop offset="0.665333" stop-color="#E50606"/>
</linearGradient>
<clipPath id="clip0_969_9">
<rect width="31" height="24" fill="white" transform="translate(14 18)"/>
</clipPath>
</defs>
</svg>
